<svg id="draw-one" xmlns="http://www.w3.org/2000/svg" viewBox="0 0 229.6 290.2">
  <defs>
    <style>
      .cls-1 {
        fill: #f2f2f2;
      }
    </style>
  </defs>
  <title>draw-one</title>
  <path class="cls-1" d="M146,459.2c-2.3-10.9-4.2-21.9-5.6-33q-1-8.2-1.7-16.4c-.4-5.1-1.3-12.3,3.5-15.6s10.1-1.5,14.8-.1l15.8,5L205,409.2c1.2.4,2-.8,1.8-1.8a939.4,939.4,0,0,0-23.4-108.3l-2.2,1.7c18.8,8.8,33.1,25.2,49.9,37.1a243.6,243.6,0,0,0,55,29,1.5,1.5,0,0,0,1.8-1c2.5-7.7,1.8-15.5,1-23.4s-2-16.8-2.9-25.3l-6.1-52.5-1.5,1.5c7.8-.8,15.1,6.6,21.1,10.8l20.1,14.2,40.3,28.3a1.5,1.5,0,0,0,2.3-1.3c1.4-25.3,5.5-52-.8-76.9-5.8-23.1-17.8-44.7-18.2-68.9,0-1.9-3-1.9-3,0,.4,23.4,11.3,44.3,17.4,66.4,7.1,25.7,3,53.1,1.5,79.3l2.3-1.3-43.5-30.6-21-14.7c-5.6-3.9-11.3-9-18.5-8.3-.7.1-1.6.6-1.5,1.5l5.9,50.5,2.9,25.3c1,8.3,2,16.5-.6,24.5l1.8-1a240.5,240.5,0,0,1-55.7-29.7c-16.3-11.7-30.1-27.5-48.5-36a1.5,1.5,0,0,0-2.2,1.7,939.4,939.4,0,0,1,23.4,108.3l1.8-1.8-39.7-12.4c-7.6-2.4-19.2-7.7-26.4-1.5s-3.8,20.7-2.8,29.1c1.4,13,3.5,25.8,6.2,38.6.4,1.9,3.3,1.1,2.9-.8Z" transform="translate(-135.1 -170.9)"/>
</svg>
